#N canvas 198 249 450 300 10;
#X msg 33 27 create \, 1;
#X obj 33 49 gemwin;
#N canvas 317 500 450 313 card 0;
#X obj 32 10 gemhead;
#X obj 32 32 translateXYZ;
#X obj 31 163 pix_texture;
#X obj 141 127 bng 22 250 50 0 empty empty newpic 7 20 0 8 -262144
-1 -1;
#N canvas 162 211 587 389 image_flipper 0;
#X obj 77 48 inlet;
#X obj 77 344 outlet;
#X obj 175 21 inlet, f 8;
#X msg 328 82 open \$1;
#X obj 328 59 openpanel;
#X text 79 30 gemlist;
#X msg 381 77 set \$1;
#X msg 298 201 open \$1;
#X obj 331 38 bng 15 250 50 0 empty empty empty 17 7 0 10 -262144 -1
-1;
#X msg 127 277 open \$1;
#X obj 176 45 sel 0 1;
#X obj 215 71 bang;
#X obj 200 128 int 0;
#X obj 240 117 + 1;
#X obj 241 139 % 2, f 4;
#X msg 164 79 0;
#X msg 189 94 1;
#X obj 184 165 sel 0 1;
#X msg 296 177 symbol /home/david/solatare/cards/card_%2-14.png;
#X msg 127 251 symbol /home/david/solatare/cardback/7.png, f 71;
#X obj 252 278 openpanel;
#X obj 314 279 bng 15 250 50 0 empty empty empty 17 7 0 10 -262144
-1 -1;
#X msg 255 299 set symbol \$1;
#X obj 330 129 openpanel;
#X obj 392 130 bng 15 250 50 0 empty empty empty 17 7 0 10 -262144
-1 -1;
#X msg 333 150 set symbol \$1;
#X obj 77 205 pix_image;
#X connect 0 0 26 0;
#X connect 2 0 10 0;
#X connect 4 0 3 0;
#X connect 4 0 6 0;
#X connect 7 0 26 0;
#X connect 8 0 4 0;
#X connect 9 0 26 0;
#X connect 10 0 15 0;
#X connect 10 1 16 0;
#X connect 10 2 11 0;
#X connect 11 0 12 0;
#X connect 12 0 13 0;
#X connect 12 0 17 0;
#X connect 13 0 14 0;
#X connect 14 0 12 1;
#X connect 15 0 12 0;
#X connect 16 0 12 0;
#X connect 17 0 19 0;
#X connect 17 1 18 0;
#X connect 18 0 7 0;
#X connect 19 0 9 0;
#X connect 20 0 22 0;
#X connect 21 0 20 0;
#X connect 22 0 19 0;
#X connect 23 0 25 0;
#X connect 24 0 23 0;
#X connect 25 0 18 0;
#X connect 26 0 1 0;
#X restore 32 140 pd image_flipper;
#N canvas 703 367 450 346 spinner 0;
#X obj 27 241 outlet;
#X obj 91 8 inlet;
#X obj 91 33 bang;
#X obj 34 129 line;
#X obj 18 5 inlet;
#X msg 35 95 180 1000;
#X obj 10 214 rotateXYZ;
#X msg 115 100 0 1000, f 8;
#X obj 139 48 int 0;
#X obj 179 37 + 1;
#X obj 180 59 % 2, f 4;
#X obj 121 68 sel 0 1;
#X obj 125 125 t b b;
#X msg 151 187 0;
#X obj 97 202 line;
#X msg 119 157 360 1000;
#X connect 1 0 2 0;
#X connect 2 0 8 0;
#X connect 2 0 12 0;
#X connect 3 0 6 2;
#X connect 4 0 6 0;
#X connect 5 0 3 0;
#X connect 6 0 0 0;
#X connect 7 0 3 0;
#X connect 8 0 9 0;
#X connect 8 0 11 0;
#X connect 9 0 10 0;
#X connect 10 0 8 1;
#X connect 11 0 5 0;
#X connect 11 1 7 0;
#X connect 12 0 15 0;
#X connect 12 1 13 0;
#X connect 13 0 14 0;
#X connect 14 0 6 3;
#X connect 15 0 14 0;
#X restore 46 110 pd spinner;
#X obj 134 64 bng 15 250 50 0 empty empty empty 17 7 0 10 -262144 -1
-1;
#X obj 133 84 del 460;
#X obj 62 193 alpha 1;
#X obj 42 223 rectangle 0.3 0.4;
#X connect 0 0 1 0;
#X connect 1 0 5 0;
#X connect 2 0 8 0;
#X connect 3 0 4 1;
#X connect 4 0 2 0;
#X connect 5 0 4 0;
#X connect 6 0 5 1;
#X connect 6 0 7 0;
#X connect 7 0 4 1;
#X connect 8 0 9 0;
#X restore 66 84 pd card 1;
#X msg 120 20 destroy;
#X msg 188 31 dimen 1200 800;
#N canvas 317 500 450 313 card 0;
#X obj 32 10 gemhead;
#X obj 32 32 translateXYZ;
#X obj 31 163 pix_texture;
#X obj 141 127 bng 22 250 50 0 empty empty newpic 7 20 0 8 -262144
-1 -1;
#N canvas 162 211 587 389 image_flipper 0;
#X obj 77 48 inlet;
#X obj 77 344 outlet;
#X obj 175 21 inlet, f 8;
#X msg 328 82 open \$1;
#X obj 328 59 openpanel;
#X text 79 30 gemlist;
#X msg 381 77 set \$1;
#X msg 298 201 open \$1;
#X obj 331 38 bng 15 250 50 0 empty empty empty 17 7 0 10 -262144 -1
-1;
#X msg 127 277 open \$1;
#X obj 176 45 sel 0 1;
#X obj 215 71 bang;
#X obj 200 128 int 0;
#X obj 240 117 + 1;
#X obj 241 139 % 2, f 4;
#X msg 164 79 0;
#X msg 189 94 1;
#X obj 184 165 sel 0 1;
#X msg 296 177 symbol /home/david/solatare/cards/card_%2-14.png;
#X msg 127 251 symbol /home/david/solatare/cardback/7.png, f 71;
#X obj 252 278 openpanel;
#X obj 314 279 bng 15 250 50 0 empty empty empty 17 7 0 10 -262144
-1 -1;
#X msg 255 299 set symbol \$1;
#X obj 330 129 openpanel;
#X obj 392 130 bng 15 250 50 0 empty empty empty 17 7 0 10 -262144
-1 -1;
#X msg 333 150 set symbol \$1;
#X obj 77 205 pix_image;
#X connect 0 0 26 0;
#X connect 2 0 10 0;
#X connect 4 0 3 0;
#X connect 4 0 6 0;
#X connect 7 0 26 0;
#X connect 8 0 4 0;
#X connect 9 0 26 0;
#X connect 10 0 15 0;
#X connect 10 1 16 0;
#X connect 10 2 11 0;
#X connect 11 0 12 0;
#X connect 12 0 13 0;
#X connect 12 0 17 0;
#X connect 13 0 14 0;
#X connect 14 0 12 1;
#X connect 15 0 12 0;
#X connect 16 0 12 0;
#X connect 17 0 19 0;
#X connect 17 1 18 0;
#X connect 18 0 7 0;
#X connect 19 0 9 0;
#X connect 20 0 22 0;
#X connect 21 0 20 0;
#X connect 22 0 19 0;
#X connect 23 0 25 0;
#X connect 24 0 23 0;
#X connect 25 0 18 0;
#X connect 26 0 1 0;
#X restore 32 140 pd image_flipper;
#N canvas 703 367 450 346 spinner 0;
#X obj 27 241 outlet;
#X obj 91 8 inlet;
#X obj 91 33 bang;
#X obj 34 129 line;
#X obj 18 5 inlet;
#X msg 35 95 180 1000;
#X obj 10 214 rotateXYZ;
#X msg 115 100 0 1000, f 8;
#X obj 139 48 int 0;
#X obj 179 37 + 1;
#X obj 180 59 % 2, f 4;
#X obj 121 68 sel 0 1;
#X obj 125 125 t b b;
#X msg 151 187 0;
#X obj 97 202 line;
#X msg 119 157 360 1000;
#X connect 1 0 2 0;
#X connect 2 0 8 0;
#X connect 2 0 12 0;
#X connect 3 0 6 2;
#X connect 4 0 6 0;
#X connect 5 0 3 0;
#X connect 6 0 0 0;
#X connect 7 0 3 0;
#X connect 8 0 9 0;
#X connect 8 0 11 0;
#X connect 9 0 10 0;
#X connect 10 0 8 1;
#X connect 11 0 5 0;
#X connect 11 1 7 0;
#X connect 12 0 15 0;
#X connect 12 1 13 0;
#X connect 13 0 14 0;
#X connect 14 0 6 3;
#X connect 15 0 14 0;
#X restore 46 110 pd spinner;
#X obj 134 64 bng 15 250 50 0 empty empty empty 17 7 0 10 -262144 -1
-1;
#X obj 133 84 del 460;
#X obj 62 193 alpha 1;
#X obj 42 223 rectangle 0.3 0.4;
#X connect 0 0 1 0;
#X connect 1 0 5 0;
#X connect 2 0 8 0;
#X connect 3 0 4 1;
#X connect 4 0 2 0;
#X connect 5 0 4 0;
#X connect 6 0 5 1;
#X connect 6 0 7 0;
#X connect 7 0 4 1;
#X connect 8 0 9 0;
#X restore 167 133 pd card 1;
#N canvas 693 663 450 336 card 0;
#X obj 32 10 gemhead;
#X obj 32 32 translateXYZ;
#X obj 31 163 pix_texture;
#X obj 141 127 bng 22 250 50 0 empty empty newpic 7 20 0 8 -262144
-1 -1;
#N canvas 162 211 587 389 image_flipper 0;
#X obj 77 48 inlet;
#X obj 77 344 outlet;
#X obj 175 21 inlet, f 8;
#X msg 328 82 open \$1;
#X obj 328 59 openpanel;
#X text 79 30 gemlist;
#X msg 381 77 set \$1;
#X msg 298 201 open \$1;
#X obj 331 38 bng 15 250 50 0 empty empty empty 17 7 0 10 -262144 -1
-1;
#X msg 127 277 open \$1;
#X obj 176 45 sel 0 1;
#X obj 215 71 bang;
#X obj 200 128 int 0;
#X obj 240 117 + 1;
#X obj 241 139 % 2, f 4;
#X msg 164 79 0;
#X msg 189 94 1;
#X obj 184 165 sel 0 1;
#X msg 296 177 symbol /home/david/solatare/cards/card_%2-14.png;
#X msg 127 251 symbol /home/david/solatare/cardback/7.png, f 71;
#X obj 252 278 openpanel;
#X obj 314 279 bng 15 250 50 0 empty empty empty 17 7 0 10 -262144
-1 -1;
#X msg 255 299 set symbol \$1;
#X obj 330 129 openpanel;
#X obj 392 130 bng 15 250 50 0 empty empty empty 17 7 0 10 -262144
-1 -1;
#X msg 333 150 set symbol \$1;
#X obj 77 205 pix_image;
#X connect 0 0 26 0;
#X connect 2 0 10 0;
#X connect 4 0 3 0;
#X connect 4 0 6 0;
#X connect 7 0 26 0;
#X connect 8 0 4 0;
#X connect 9 0 26 0;
#X connect 10 0 15 0;
#X connect 10 1 16 0;
#X connect 10 2 11 0;
#X connect 11 0 12 0;
#X connect 12 0 13 0;
#X connect 12 0 17 0;
#X connect 13 0 14 0;
#X connect 14 0 12 1;
#X connect 15 0 12 0;
#X connect 16 0 12 0;
#X connect 17 0 19 0;
#X connect 17 1 18 0;
#X connect 18 0 7 0;
#X connect 19 0 9 0;
#X connect 20 0 22 0;
#X connect 21 0 20 0;
#X connect 22 0 19 0;
#X connect 23 0 25 0;
#X connect 24 0 23 0;
#X connect 25 0 18 0;
#X connect 26 0 1 0;
#X restore 32 140 pd image_flipper;
#N canvas 703 367 450 346 spinner 0;
#X obj 27 241 outlet;
#X obj 91 8 inlet;
#X obj 91 33 bang;
#X obj 34 129 line;
#X obj 18 5 inlet;
#X msg 35 95 180 1000;
#X obj 10 214 rotateXYZ;
#X msg 115 100 0 1000, f 8;
#X obj 139 48 int 0;
#X obj 179 37 + 1;
#X obj 180 59 % 2, f 4;
#X obj 121 68 sel 0 1;
#X obj 125 125 t b b;
#X msg 151 187 0;
#X obj 97 202 line;
#X msg 119 157 360 1000;
#X connect 1 0 2 0;
#X connect 2 0 8 0;
#X connect 2 0 12 0;
#X connect 3 0 6 2;
#X connect 4 0 6 0;
#X connect 5 0 3 0;
#X connect 6 0 0 0;
#X connect 7 0 3 0;
#X connect 8 0 9 0;
#X connect 8 0 11 0;
#X connect 9 0 10 0;
#X connect 10 0 8 1;
#X connect 11 0 5 0;
#X connect 11 1 7 0;
#X connect 12 0 15 0;
#X connect 12 1 13 0;
#X connect 13 0 14 0;
#X connect 14 0 6 3;
#X connect 15 0 14 0;
#X restore 46 110 pd spinner;
#X obj 134 64 bng 15 250 50 0 empty empty empty 17 7 0 10 -262144 -1
-1;
#X obj 133 84 del 460;
#X obj 62 193 alpha 1;
#X obj 42 223 rectangle 0.3 0.4;
#X connect 0 0 1 0;
#X connect 1 0 5 0;
#X connect 2 0 8 0;
#X connect 3 0 4 1;
#X connect 4 0 2 0;
#X connect 5 0 4 0;
#X connect 6 0 5 1;
#X connect 6 0 7 0;
#X connect 7 0 4 1;
#X connect 8 0 9 0;
#X restore 254 207 pd card 1;
#X connect 0 0 1 0;
#X connect 3 0 1 0;
#X connect 4 0 1 0;
