#N canvas 29 455 450 257 10;
#X msg 33 27 create \, 1;
#X obj 33 49 gemwin;
#X obj 327 216 s commands;
#X msg 106 31 destroy;
#X msg 117 64 dimen 1200 400;
#X obj 324 33 singlecard 4;
#X msg 320 165 4 trans \$1 \$2 \$3;
#X obj 336 72 vsl 15 56 -4 4 0 0 empty empty empty 0 -9 0 10 -262144
-1 -1 1850 1;
#X obj 356 72 vsl 15 56 -4 4 0 0 empty empty empty 0 -9 0 10 -262144
-1 -1 2000 1;
#X obj 376 72 vsl 15 56 -4 4 0 0 empty empty empty 0 -9 0 10 -262144
-1 -1 4100 1;
#N canvas 0 0 450 300 pack 0;
#X obj 36 20 inlet;
#X obj 76 20 inlet;
#X obj 116 20 inlet;
#X obj 54 113 outlet;
#X obj 49 89 pack f f f;
#X obj 7 59 bang;
#X connect 0 0 4 0;
#X connect 1 0 4 1;
#X connect 1 0 5 0;
#X connect 2 0 4 2;
#X connect 2 0 5 0;
#X connect 4 0 3 0;
#X connect 5 0 4 0;
#X restore 330 141 pd pack fff;
#X msg 372 186 4 flip \$1;
#X obj 331 189 tgl 15 0 empty empty empty 17 7 0 10 -262144 -1 -1 0
1;
#X connect 0 0 1 0;
#X connect 3 0 1 0;
#X connect 4 0 1 0;
#X connect 6 0 2 0;
#X connect 7 0 10 0;
#X connect 8 0 10 1;
#X connect 9 0 10 2;
#X connect 10 0 6 0;
#X connect 11 0 2 0;
#X connect 12 0 11 0;
