#N canvas 13 499 450 257 10;
#X msg 33 27 create \, 1;
#X obj 33 49 gemwin;
#X msg 106 31 destroy;
#X msg 117 64 dimen 1200 400;
#X obj 336 72 vsl 15 56 -4 4 0 0 empty empty empty 0 -9 0 10 -262144
-1 -1 3554 1;
#X obj 356 72 vsl 15 56 -4 4 0 0 empty empty empty 0 -9 0 10 -262144
-1 -1 4014 1;
#X obj 376 72 vsl 15 56 -4 4 0 0 empty empty empty 0 -9 0 10 -262144
-1 -1 2214 1;
#N canvas 0 0 450 300 pack 0;
#X obj 36 20 inlet;
#X obj 76 20 inlet;
#X obj 116 20 inlet;
#X obj 54 113 outlet;
#X obj 49 89 pack f f f;
#X obj 7 59 bang;
#X connect 0 0 4 0;
#X connect 1 0 4 1;
#X connect 1 0 5 0;
#X connect 2 0 4 2;
#X connect 2 0 5 0;
#X connect 4 0 3 0;
#X connect 5 0 4 0;
#X restore 330 141 pd pack fff;
#X msg 372 186 4 flip \$1;
#X obj 332 189 tgl 15 0 empty empty empty 17 7 0 10 -262144 -1 -1 1
1;
#X obj 135 9 singlecard 4;
#X msg 320 165 4 trans \$1 \$2 \$3;
#N canvas 656 340 450 323 swoonerZ 0;
#X obj 111 204 outlet;
#X obj 218 202 outlet;
#X obj 323 203 outlet;
#X obj 94 101 int 0;
#X obj 136 101 + 1;
#X obj 103 151 line;
#X obj 69 76 tgl 15 0 empty empty empty 17 7 0 10 -262144 -1 -1 0 1
;
#X obj 94 79 metro 1500;
#X msg 94 123 \$1 1500;
#X obj 111 178 expr 2* sin($f1/3);
#X obj 218 176 expr 2* sin($f1/7);
#X obj 323 177 expr 2* sin($f1/11);
#X obj 92 38 inlet;
#X connect 3 0 4 0;
#X connect 3 0 8 0;
#X connect 4 0 3 1;
#X connect 5 0 9 0;
#X connect 5 0 10 0;
#X connect 5 0 11 0;
#X connect 6 0 7 0;
#X connect 7 0 3 0;
#X connect 8 0 5 0;
#X connect 9 0 0 0;
#X connect 10 0 1 0;
#X connect 11 0 2 0;
#X connect 12 0 7 0;
#X restore 313 49 pd swoonerZ;
#X msg 242 177 4 face symbol QH;
#X obj 293 211 s singlecard_commands;
#X obj 315 24 tgl 15 0 empty empty empty 17 7 0 10 -262144 -1 -1 1
1;
#X msg 261 142 4 report;
#X connect 0 0 1 0;
#X connect 2 0 1 0;
#X connect 3 0 1 0;
#X connect 4 0 7 0;
#X connect 5 0 7 1;
#X connect 6 0 7 2;
#X connect 7 0 11 0;
#X connect 8 0 14 0;
#X connect 9 0 8 0;
#X connect 11 0 14 0;
#X connect 12 0 4 0;
#X connect 12 1 5 0;
#X connect 12 2 6 0;
#X connect 13 0 14 0;
#X connect 15 0 12 0;
#X connect 16 0 14 0;
