#N canvas 185 458 815 257 10;
#X msg 33 27 create \, 1;
#X obj 33 49 gemwin;
#X msg 106 31 destroy;
#X msg 119 56 dimen 1200 400;
#X obj 268 69 vsl 15 56 -4 4 0 0 empty empty empty 0 -9 0 10 -262144
-1 -1 3830 1;
#X obj 288 69 vsl 15 56 -4 4 0 0 empty empty empty 0 -9 0 10 -262144
-1 -1 1393 1;
#X obj 308 69 vsl 15 56 -4 4 0 0 empty empty empty 0 -9 0 10 -262144
-1 -1 1382 1;
#X obj 332 189 tgl 15 0 empty empty empty 17 7 0 10 -262144 -1 -1 0
1;
#N canvas 656 340 450 323 swoonerZ 1;
#X obj 3 64 outlet;
#X obj 70 112 outlet;
#X obj 115 143 outlet;
#X obj 178 44 int 0;
#X obj 220 44 + 1;
#X obj 187 94 line;
#X obj 119 29 tgl 52 0 empty empty empty 17 7 0 10 -262144 -1 -1 0
1;
#X obj 178 22 metro 1500;
#X msg 178 66 \$1 1500;
#X obj 3 38 expr 2* sin($f1/3);
#X obj 70 86 expr 2* sin($f1/7);
#X obj 115 117 expr 2* sin($f1/11);
#X obj 49 13 inlet;
#X connect 3 0 4 0;
#X connect 3 0 8 0;
#X connect 4 0 3 1;
#X connect 5 0 9 0;
#X connect 5 0 10 0;
#X connect 5 0 11 0;
#X connect 6 0 7 0;
#X connect 7 0 3 0;
#X connect 8 0 5 0;
#X connect 9 0 0 0;
#X connect 10 0 1 0;
#X connect 11 0 2 0;
#X connect 12 0 7 0;
#X restore 245 46 pd swoonerZ;
#X obj 295 211 s singlecard_commands;
#X obj 247 21 tgl 15 0 empty empty empty 17 7 0 10 -262144 -1 -1 1
1;
#N canvas 808 399 450 346 deck 1;
#X obj 120 20 singlecard 1;
#X obj 120 40 singlecard 2;
#X obj 120 60 singlecard 3;
#X obj 120 80 singlecard 4;
#X obj 120 100 singlecard 5;
#X obj 120 120 singlecard 6;
#X obj 120 140 singlecard 7;
#X obj 120 160 singlecard 8;
#X obj 120 180 singlecard 9;
#X obj 120 200 singlecard 10;
#X obj 120 220 singlecard 11;
#X obj 120 240 singlecard 12;
#X obj 120 260 singlecard 13;
#X obj 120 280 singlecard 14;
#X obj 120 300 singlecard 15;
#X obj 120 320 singlecard 16;
#X obj 120 340 singlecard 17;
#X obj 120 360 singlecard 18;
#X obj 120 380 singlecard 19;
#X obj 120 400 singlecard 20;
#X obj 120 420 singlecard 21;
#X obj 120 440 singlecard 22;
#X obj 120 460 singlecard 23;
#X obj 120 480 singlecard 24;
#X obj 120 500 singlecard 25;
#X obj 120 520 singlecard 26;
#X obj 120 540 singlecard 27;
#X obj 120 560 singlecard 28;
#X obj 120 580 singlecard 29;
#X obj 120 600 singlecard 30;
#X obj 120 620 singlecard 31;
#X obj 120 640 singlecard 32;
#X obj 120 660 singlecard 33;
#X obj 120 680 singlecard 34;
#X obj 120 700 singlecard 35;
#X obj 120 720 singlecard 36;
#X obj 120 740 singlecard 37;
#X obj 120 760 singlecard 38;
#X obj 120 780 singlecard 39;
#X obj 120 800 singlecard 40;
#X obj 120 820 singlecard 41;
#X obj 120 840 singlecard 42;
#X obj 120 860 singlecard 43;
#X obj 120 880 singlecard 44;
#X obj 120 900 singlecard 45;
#X obj 120 920 singlecard 46;
#X obj 120 940 singlecard 47;
#X obj 120 960 singlecard 48;
#X obj 120 980 singlecard 49;
#X obj 120 1000 singlecard 50;
#X obj 120 1020 singlecard 51;
#X obj 120 1040 singlecard 52;
#X restore 453 189 pd deck;
#X msg 442 140 \; pd-deck obj 120 \$2 singlecard \$1;
#N canvas 625 385 281 199 builddeck 0;
#X obj 63 181 outlet;
#X obj 54 10 inlet;
#X obj 54 57 int 0;
#X obj 78 105 + 1;
#X obj 51 79 sel 52;
#X obj 54 32 bng 15 250 50 0 empty empty empty 17 7 0 10 -262144 -1
-1;
#X obj 119 87 pipe 5;
#X msg 6 70 0;
#X obj 122 58 % 53;
#X obj 70 161 pack f f;
#X obj 51 132 t f f;
#X obj 116 117 * 20;
#X connect 1 0 5 0;
#X connect 2 0 4 0;
#X connect 3 0 8 0;
#X connect 3 0 10 0;
#X connect 4 0 7 0;
#X connect 4 1 3 0;
#X connect 5 0 2 0;
#X connect 6 0 2 0;
#X connect 7 0 2 1;
#X connect 8 0 6 0;
#X connect 9 0 0 0;
#X connect 10 0 9 0;
#X connect 10 1 11 0;
#X connect 11 0 9 1;
#X restore 440 107 pd builddeck;
#X obj 439 82 bng 15 250 50 0 empty empty empty 17 7 0 10 -262144 -1
-1;
#N canvas 625 385 281 199 builddeck 0;
#X obj 63 181 outlet;
#X obj 54 10 inlet;
#X obj 54 57 int 0;
#X obj 78 105 + 1;
#X obj 51 79 sel 52;
#X obj 54 32 bng 15 250 50 0 empty empty empty 17 7 0 10 -262144 -1
-1;
#X msg 6 70 0;
#X obj 122 58 % 53;
#X obj 70 161 pack f f;
#X obj 51 132 t f f;
#X obj 116 117 * 20;
#X obj 119 87 pipe 25;
#X connect 1 0 5 0;
#X connect 2 0 4 0;
#X connect 3 0 7 0;
#X connect 3 0 9 0;
#X connect 4 0 6 0;
#X connect 4 1 3 0;
#X connect 5 0 2 0;
#X connect 6 0 2 1;
#X connect 7 0 11 0;
#X connect 8 0 0 0;
#X connect 9 0 8 0;
#X connect 9 1 10 0;
#X connect 10 0 8 1;
#X connect 11 0 2 0;
#X restore 565 52 pd builddeck;
#X msg 574 87 \$1 flip 0;
#X msg 487 80 \$1 flip 1;
#X obj 536 110 s singlecard_commands;
#X obj 563 18 bng 15 250 50 0 empty empty empty 17 7 0 10 -262144 -1
-1;
#N canvas 625 385 281 199 builddeck 0;
#X obj 63 181 outlet;
#X obj 54 10 inlet;
#X obj 54 57 int 0;
#X obj 78 105 + 1;
#X obj 51 79 sel 52;
#X obj 54 32 bng 15 250 50 0 empty empty empty 17 7 0 10 -262144 -1
-1;
#X msg 6 70 0;
#X obj 122 58 % 53;
#X obj 70 161 pack f f;
#X obj 51 132 t f f;
#X obj 116 117 * 20;
#X obj 119 87 pipe 25;
#X connect 1 0 5 0;
#X connect 2 0 4 0;
#X connect 3 0 7 0;
#X connect 3 0 9 0;
#X connect 4 0 6 0;
#X connect 4 1 3 0;
#X connect 5 0 2 0;
#X connect 6 0 2 1;
#X connect 7 0 11 0;
#X connect 8 0 0 0;
#X connect 9 0 8 0;
#X connect 9 1 10 0;
#X connect 10 0 8 1;
#X connect 11 0 2 0;
#X restore 476 50 pd builddeck;
#X obj 466 27 bng 15 250 50 0 empty empty empty 17 7 0 10 -262144 -1
-1;
#X msg 400 104 4;
#N canvas 625 385 281 199 builddeck 1;
#X obj 63 181 outlet;
#X obj 54 10 inlet;
#X obj 54 57 int 0;
#X obj 78 105 + 1;
#X obj 51 79 sel 52;
#X obj 54 32 bng 15 250 50 0 empty empty empty 17 7 0 10 -262144 -1
-1;
#X msg 6 70 0;
#X obj 130 42 % 53;
#X obj 51 132 t f f;
#X obj 119 87 pipe 25;
#X obj 116 117 * 0.1;
#X obj 70 161 pack f f f f;
#X obj 169 133 sin;
#X obj 198 132 sin;
#X connect 1 0 5 0;
#X connect 2 0 4 0;
#X connect 3 0 7 0;
#X connect 3 0 8 0;
#X connect 4 0 6 0;
#X connect 4 1 3 0;
#X connect 5 0 2 0;
#X connect 6 0 2 1;
#X connect 7 0 9 0;
#X connect 7 0 13 0;
#X connect 8 0 11 0;
#X connect 8 1 10 0;
#X connect 9 0 2 0;
#X connect 10 0 11 1;
#X connect 10 0 12 0;
#X connect 11 0 0 0;
#X connect 12 0 11 2;
#X connect 13 0 11 3;
#X restore 130 175 pd builddeck;
#X obj 130 157 bng 15 250 50 0 empty empty empty 17 7 0 10 -262144
-1 -1;
#X msg 131 196 set \$1 trans \$2 \$3 \$4;
#X msg 164 220 3 face symbol QH;
#X obj 192 0 loadbang;
#X obj 192 25 t b b;
#N canvas 0 0 450 300 pack 0;
#X obj 36 20 inlet;
#X obj 76 20 inlet;
#X obj 116 20 inlet;
#X obj 54 113 outlet;
#X obj 7 59 bang;
#X obj 173 18 inlet;
#X obj 49 89 pack f f f f;
#X connect 0 0 6 0;
#X connect 1 0 4 0;
#X connect 1 0 6 1;
#X connect 2 0 4 0;
#X connect 2 0 6 2;
#X connect 4 0 6 0;
#X connect 5 0 6 3;
#X connect 6 0 3 0;
#X restore 262 138 pd pack ffff;
#X msg 320 165 \$4 trans \$1 \$2 \$3;
#N canvas 0 0 450 300 packcycle 0;
#X obj 64 89 outlet;
#X obj 74 64 int;
#X obj 125 74 + 1;
#X obj 124 46 % 52;
#X obj 52 34 metro 500;
#X obj 31 1 initbang;
#X msg 19 33 1;
#X obj 108 10 inlet;
#X connect 1 0 3 0;
#X connect 1 0 0 0;
#X connect 2 0 1 1;
#X connect 3 0 2 0;
#X connect 4 0 1 0;
#X connect 5 0 6 0;
#X connect 6 0 4 0;
#X connect 7 0 4 1;
#X restore 346 77 pd packcycle;
#X msg 371 186 \$4 flip \$1;
#X floatatom 342 51 5 0 0 0 - - -, f 5;
#X connect 0 0 1 0;
#X connect 2 0 1 0;
#X connect 3 0 1 0;
#X connect 4 0 29 0;
#X connect 5 0 29 1;
#X connect 6 0 29 2;
#X connect 7 0 32 0;
#X connect 8 0 4 0;
#X connect 8 1 5 0;
#X connect 8 2 6 0;
#X connect 10 0 8 0;
#X connect 13 0 12 0;
#X connect 15 0 16 0;
#X connect 16 0 18 0;
#X connect 17 0 18 0;
#X connect 19 0 15 0;
#X connect 20 0 17 0;
#X connect 21 0 20 0;
#X connect 22 0 12 0;
#X connect 23 0 25 0;
#X connect 24 0 23 0;
#X connect 25 0 9 0;
#X connect 26 0 9 0;
#X connect 27 0 28 0;
#X connect 28 0 0 0;
#X connect 28 1 3 0;
#X connect 29 0 30 0;
#X connect 29 0 32 0;
#X connect 30 0 9 0;
#X connect 31 0 29 3;
#X connect 32 0 9 0;
#X connect 33 0 31 0;
