#N canvas 638 444 450 300 10;
#X obj 12 -11 gemhead;
#X obj 48 25 translateXYZ;
#X obj 45 130 pix_texture;
#X obj 179 -32 r commands;
#X obj 199 -9 route;
#X obj 250 -43 loadbang;
#X obj 250 -21 \$1;
#X obj 213 21 route trans flip;
#N canvas 704 393 450 346 flipanimate 1;
#X obj 37 302 outlet;
#X obj 71 8 inlet;
#X obj 91 33 bang;
#X obj 34 129 line;
#X obj 18 5 inlet;
#X msg 30 102 180 1000;
#X obj 20 275 rotateXYZ;
#X msg 115 100 0 1000, f 8;
#X obj 139 48 int 0;
#X obj 179 37 + 1;
#X obj 180 59 % 2, f 4;
#X obj 121 68 sel 0 1;
#X obj 125 125 t b b;
#X obj 126 237 line;
#X msg 99 199 0 500;
#X obj 97 159 del 500;
#X obj 95 297 outlet;
#X msg 150 187 13.418 500;
#X obj 109 266 *;
#X connect 1 0 2 0;
#X connect 1 0 16 0;
#X connect 2 0 8 0;
#X connect 2 0 12 0;
#X connect 3 0 6 2;
#X connect 4 0 6 0;
#X connect 5 0 3 0;
#X connect 6 0 0 0;
#X connect 7 0 3 0;
#X connect 8 0 9 0;
#X connect 8 0 11 0;
#X connect 9 0 10 0;
#X connect 10 0 8 1;
#X connect 11 0 5 0;
#X connect 11 1 7 0;
#X connect 12 0 15 0;
#X connect 12 1 17 0;
#X connect 13 0 18 1;
#X connect 13 0 18 0;
#X connect 14 0 13 0;
#X connect 15 0 14 0;
#X connect 17 0 13 0;
#X connect 18 0 6 3;
#X restore 60 77 pd flipanimate;
#N canvas 51 156 587 412 pic_swapparoo 0;
#X obj 77 48 inlet;
#X obj 77 344 outlet;
#X obj 176 1 inlet, f 8;
#X msg 328 82 open \$1;
#X obj 328 59 openpanel;
#X text 79 30 gemlist;
#X msg 381 77 set \$1;
#X msg 298 201 open \$1;
#X obj 331 38 bng 15 250 50 0 empty empty empty 17 7 0 10 -262144 -1
-1;
#X msg 127 277 open \$1;
#X obj 176 45 sel 0 1;
#X obj 215 71 bang;
#X obj 200 128 int 0;
#X obj 240 117 + 1;
#X obj 241 139 % 2, f 4;
#X msg 164 79 0;
#X msg 189 94 1;
#X obj 184 165 sel 0 1;
#X msg 296 177 symbol /home/deifius/Documents/solotoro/cards/card39.png
;
#X msg 127 251 symbol /home/deifius/Documents/solotoro/cards/card45.png
, f 71;
#X obj 252 278 openpanel;
#X obj 314 279 bng 15 250 50 0 empty empty empty 17 7 0 10 -262144
-1 -1;
#X msg 255 299 set symbol \$1;
#X obj 330 129 openpanel;
#X obj 392 130 bng 15 250 50 0 empty empty empty 17 7 0 10 -262144
-1 -1;
#X msg 333 150 set symbol \$1;
#X obj 77 203 pix_image;
#X obj 175 220 loadbang;
#X obj 173 20 pipe 500;
#X connect 0 0 26 0;
#X connect 2 0 28 0;
#X connect 4 0 3 0;
#X connect 4 0 6 0;
#X connect 7 0 26 0;
#X connect 8 0 4 0;
#X connect 9 0 26 0;
#X connect 10 0 15 0;
#X connect 10 1 16 0;
#X connect 10 2 11 0;
#X connect 11 0 12 0;
#X connect 12 0 13 0;
#X connect 12 0 17 0;
#X connect 13 0 14 0;
#X connect 14 0 12 1;
#X connect 15 0 12 0;
#X connect 16 0 12 0;
#X connect 17 0 19 0;
#X connect 17 1 18 0;
#X connect 18 0 7 0;
#X connect 19 0 9 0;
#X connect 20 0 22 0;
#X connect 21 0 20 0;
#X connect 22 0 19 0;
#X connect 23 0 25 0;
#X connect 24 0 23 0;
#X connect 25 0 18 0;
#X connect 26 0 1 0;
#X connect 27 0 19 0;
#X connect 28 0 10 0;
#X restore 49 101 pd pic_swapparoo;
#X obj 61 5 unpack f f f;
#X obj 48 152 rectangle 0.3 0.4;
#X connect 0 0 1 0;
#X connect 1 0 8 0;
#X connect 2 0 11 0;
#X connect 3 0 4 0;
#X connect 4 0 7 0;
#X connect 5 0 6 0;
#X connect 6 0 4 1;
#X connect 7 0 10 0;
#X connect 7 1 8 1;
#X connect 8 0 9 0;
#X connect 8 1 9 1;
#X connect 9 0 2 0;
#X connect 10 0 1 1;
#X connect 10 1 1 2;
#X connect 10 2 1 3;
