#N canvas 491 444 450 300 10;
#X obj 12 -11 gemhead;
#X obj 48 25 translateXYZ;
#X obj 45 130 pix_texture;
#X obj 199 -9 route;
#X obj 250 -43 loadbang;
#X obj 250 -21 \$1;
#X obj 213 21 route trans flip;
#N canvas 704 393 450 346 flipanimate 0;
#X obj 37 302 outlet;
#X obj 71 8 inlet;
#X obj 91 33 bang;
#X obj 34 129 line;
#X obj 18 5 inlet;
#X msg 30 102 180 1000;
#X obj 20 275 rotateXYZ;
#X msg 115 100 0 1000, f 8;
#X obj 139 48 int 0;
#X obj 179 37 + 1;
#X obj 180 59 % 2, f 4;
#X obj 121 68 sel 0 1;
#X obj 125 125 t b b;
#X obj 126 237 line;
#X msg 99 199 0 500;
#X obj 97 159 del 500;
#X obj 95 297 outlet;
#X msg 150 187 13.418 500;
#X obj 109 266 *;
#X connect 1 0 2 0;
#X connect 1 0 16 0;
#X connect 2 0 8 0;
#X connect 2 0 12 0;
#X connect 3 0 6 2;
#X connect 4 0 6 0;
#X connect 5 0 3 0;
#X connect 6 0 0 0;
#X connect 7 0 3 0;
#X connect 8 0 9 0;
#X connect 8 0 11 0;
#X connect 9 0 10 0;
#X connect 10 0 8 1;
#X connect 11 0 5 0;
#X connect 11 1 7 0;
#X connect 12 0 15 0;
#X connect 12 1 17 0;
#X connect 13 0 18 1;
#X connect 13 0 18 0;
#X connect 14 0 13 0;
#X connect 15 0 14 0;
#X connect 17 0 13 0;
#X connect 18 0 6 3;
#X restore 60 77 pd flipanimate;
#N canvas 659 362 599 347 pic_swapparoo 0;
#X obj 17 48 inlet;
#X obj 19 301 outlet;
#X obj 116 21 inlet, f 8;
#X msg 268 102 open \$1;
#X obj 268 79 openpanel;
#X msg 321 97 set \$1;
#X msg 238 221 open \$1;
#X obj 271 58 bng 15 250 50 0 empty empty empty 17 7 0 10 -262144 -1
-1;
#X msg 67 277 open \$1;
#X obj 116 65 sel 0 1;
#X obj 155 91 bang;
#X obj 140 148 int 0;
#X obj 180 137 + 1;
#X obj 181 159 % 2, f 4;
#X msg 104 99 0;
#X msg 129 114 1;
#X obj 124 185 sel 0 1;
#X msg 67 251 symbol /home/deifius/Documents/solotoro/cardback/5.png
, f 71;
#X obj 192 278 openpanel;
#X obj 254 279 bng 15 250 50 0 empty empty empty 17 7 0 10 -262144
-1 -1;
#X msg 195 299 set symbol \$1;
#X obj 270 149 openpanel;
#X obj 332 150 bng 15 250 50 0 empty empty empty 17 7 0 10 -262144
-1 -1;
#X msg 273 170 set symbol \$1;
#X obj 17 203 pix_image;
#X obj 115 220 loadbang;
#X obj 211 37 inlet, f 8;
#X msg 235 195 symbol /home/deifius/Documents/solotoro/cards/KD.PNG
;
#X obj 227 124 makefilename cards/%s.PNG;
#X obj 113 40 pipe 490;
#X connect 0 0 24 0;
#X connect 2 0 29 0;
#X connect 4 0 3 0;
#X connect 4 0 5 0;
#X connect 6 0 24 0;
#X connect 7 0 4 0;
#X connect 8 0 24 0;
#X connect 9 0 14 0;
#X connect 9 1 15 0;
#X connect 9 2 10 0;
#X connect 10 0 11 0;
#X connect 11 0 12 0;
#X connect 11 0 16 0;
#X connect 12 0 13 0;
#X connect 13 0 11 1;
#X connect 14 0 11 0;
#X connect 15 0 11 0;
#X connect 16 0 17 0;
#X connect 16 1 27 0;
#X connect 17 0 8 0;
#X connect 18 0 20 0;
#X connect 19 0 18 0;
#X connect 20 0 17 0;
#X connect 21 0 23 0;
#X connect 22 0 21 0;
#X connect 23 0 27 0;
#X connect 24 0 1 0;
#X connect 25 0 17 0;
#X connect 26 0 28 0;
#X connect 27 0 6 0;
#X connect 28 0 23 0;
#X connect 29 0 9 0;
#X restore 49 101 pd pic_swapparoo;
#X obj 61 5 unpack f f f;
#X obj 13 181 rectangle 0.3 0.4;
#X obj 38 157 alpha 1;
#X obj 224 60 route face;
#X msg 133 179 4 flip \$1;
#X msg 135 159 4 trans \$1 \$2 \$3;
#X msg 127 131 4 face symbol QH;
#X text 234 130 (makes card #4 a Queen d'Hearts);
#X text 240 157 (moves card #4 XYZ);
#X text 199 181 (flips the card \, 1:face \, 0:back;
#X text 161 109 send commands to each card by #;
#X obj 99 -38 r singlecard_commands;
#X obj 112 226 s singlecard_commands;
#X text 200 204 (report state of card);
#N canvas 897 341 450 300 report 0;
#X obj 95 14 inlet;
#X obj 319 153 \$1;
#X obj 316 181 print cardID;
#X obj 128 130 route trans flip face;
#X msg 62 187;
#X msg 122 207;
#X msg 151 183 set flip \$1;
#X msg 91 163 set trans \$1 \$2 \$3;
#X msg 202 227;
#X obj 103 70 route report;
#X obj 74 104 t b b b b;
#X obj 68 261 print position;
#X obj 96 232 print rotation;
#X obj 203 252 print face;
#X msg 231 203 set value \$1;
#X obj 136 46 print;
#X obj 11 84 print;
#X obj 19 38 int 0;
#X obj 48 63 + 1;
#X connect 0 0 9 0;
#X connect 1 0 2 0;
#X connect 3 0 7 0;
#X connect 3 1 6 0;
#X connect 3 2 14 0;
#X connect 4 0 11 0;
#X connect 5 0 12 0;
#X connect 6 0 5 0;
#X connect 7 0 4 0;
#X connect 8 0 13 0;
#X connect 9 0 10 0;
#X connect 9 0 17 0;
#X connect 9 1 3 0;
#X connect 10 0 4 0;
#X connect 10 1 5 0;
#X connect 10 2 8 0;
#X connect 10 3 1 0;
#X connect 14 0 8 0;
#X connect 17 0 18 0;
#X connect 18 0 17 1;
#X connect 18 0 16 0;
#X restore 128 40 pd report;
#X msg 141 202 4 report;
#X obj 87 153 tgl 15 0 empty empty empty 17 7 0 10 -262144 -1 -1 0
1;
#X connect 0 0 1 0;
#X connect 1 0 7 0;
#X connect 2 0 11 0;
#X connect 3 0 6 0;
#X connect 3 0 23 0;
#X connect 4 0 5 0;
#X connect 5 0 3 1;
#X connect 6 0 9 0;
#X connect 6 1 7 1;
#X connect 6 2 12 0;
#X connect 7 0 8 0;
#X connect 7 1 8 1;
#X connect 8 0 2 0;
#X connect 9 0 1 1;
#X connect 9 1 1 2;
#X connect 9 2 1 3;
#X connect 11 0 10 0;
#X connect 12 0 8 2;
#X connect 13 0 21 0;
#X connect 14 0 21 0;
#X connect 15 0 21 0;
#X connect 20 0 3 0;
#X connect 24 0 21 0;
#X connect 25 0 11 1;
